# xmcd
#
# Track frame offsets:
#	150
#	29508
#	57074
#	78839
#	96779
#	140209
#	157002
#	180583
#	204680
#	220590
#	265333
#	290117
#	308311
#
# Disc length: 4338 seconds
#
# Revision: 0
# Processed by: cddbd v1.5.2PL0 Copyright (c) Steve Scherf et al.
# Submitted via: FairStars CD Ripper 1.90
#
DISCID=b910f00d
DTITLE=Various Artist - Classic Mixes I Love Country Party Anthems Vol 1
DYEAR=2018
DGENRE=Country
TTITLE0=Various Artist - A Touch Of Country Part 1
TTITLE1=Various Artist - A Touch Of Country Part 2
TTITLE2=Kenny Rogers And Dolly Parton - Islands In The Stream (Funky Remix)
TTITLE3=Mark Ronson (Feat Miley Cyrus) - Nothing Breaks Like A Heart 2019 Remix)
TTITLE4=Various Artist - Line Dancing Megamix
TTITLE5=Aloe Blacc - Wake Me Up (Acoustic Mix)
TTITLE6=Lonestar - Amazed (RKL Mix)
TTITLE7=Kid Rock Vs Lynrd Skynyrd Vs WarrenZevon - Triple Tracker
TTITLE8=Leann Rimes - Can't Fight The Moonlight (Latino Mix)
TTITLE9=Various Artist - Country Mix 2015
TTITLE10=Dolly Parton - 9 To 5 (Remix)
TTITLE11=Various Artist - Country Carnival (Party Mix)
TTITLE12=Taylor Swift - Love Story (J Stax Club Mix)
EXTD=
EXTT0=
EXTT1=
EXTT2=
EXTT3=
EXTT4=
EXTT5=
EXTT6=
EXTT7=
EXTT8=
EXTT9=
EXTT10=
EXTT11=
EXTT12=
PLAYORDER=
